# xmcd
#
# Track frame offsets:
#  150
#  15618
#  28049
#  45406
#  58766
#  73054
#  92508
#  110191
#  127116
#  146702
#  169735
#
# Disc length: 2534 seconds
#
# Revision: 0
# Processed by: cddbd v1.5.2PL0 Copyright (c) Steve Scherf et al.
# Submitted via: AltoMP3_Maker 3.0
#
DISCID=9d09e40b
DTITLE=The Doc Marshalls - Honest for Once
DYEAR=1900
DGENRE=
TTITLE0=Ticket Out of Texas
TTITLE1=Lonely at the Top
TTITLE2=St. Dymphna
TTITLE3=Deux Bouteilles
TTITLE4=Word Gets Around
TTITLE5=Honest for Once
TTITLE6=Dakota
TTITLE7=Port Barre Stomp
TTITLE8=The Worst of Both Words
TTITLE9=You Know What the Law Is in Texas
TTITLE10=Never Found My Emmylou
EXTD=
EXTT0=
EXTT1=
EXTT2=
EXTT3=
EXTT4=
EXTT5=
EXTT6=
EXTT7=
EXTT8=
EXTT9=
EXTT10=
PLAYORDER=
